<?xml version="1.0" standalone="no"?><!DOCTYPE svg PUBLIC "-//W3C//DTD SVG 1.1//EN" "http://www.w3.org/Graphics/SVG/1.1/DTD/svg11.dtd"><svg t="1602825166580" class="icon" viewBox="0 0 1024 1024" version="1.1" xmlns="http://www.w3.org/2000/svg" p-id="1165" xmlns:xlink="http://www.w3.org/1999/xlink" width="200" height="200"><defs><style type="text/css"></style></defs><path d="M501.29 597.95m-251.01 0a251.01 251.01 0 1 0 502.02 0 251.01 251.01 0 1 0-502.02 0Z" fill="#F4E428" p-id="1166"></path><path d="M187.3 567.04c-71.85 0-130.31-58.46-130.31-130.31s58.46-130.31 130.31-130.31 130.31 58.46 130.31 130.31c0 5.93-0.41 11.91-1.2 17.76l-49.19-6.71c0.5-3.64 0.75-7.35 0.75-11.05 0-44.48-36.19-80.67-80.67-80.67-44.48 0-80.67 36.19-80.67 80.67 0 44.48 36.19 80.67 80.67 80.67 7.06 0 14.06-0.91 20.81-2.7l12.76 47.97c-10.91 2.9-22.2 4.37-33.57 4.37zM575.51 306.67l-26.73-41.83c23.36-14.93 37.31-40.36 37.31-68.04 0-44.48-36.19-80.67-80.67-80.67-44.48 0-80.67 36.19-80.67 80.67 0 25.9 11.97 49.58 32.85 64.98l-29.46 39.95c-33.21-24.49-53.03-63.71-53.03-104.93 0-71.85 58.46-130.31 130.31-130.31s130.31 58.46 130.31 130.31c0.01 44.7-22.51 85.77-60.22 109.87zM825.21 558.76c-12.35 0-24.58-1.73-36.36-5.15l13.83-47.68a80.9 80.9 0 0 0 22.53 3.18c44.48 0 80.67-36.19 80.67-80.67 0-44.48-36.19-80.67-80.67-80.67-44.48 0-80.67 36.19-80.67 80.67 0 5.25 0.51 10.5 1.5 15.6l-48.72 9.53c-1.61-8.23-2.42-16.68-2.42-25.13 0-71.85 58.46-130.31 130.31-130.31s130.31 58.46 130.31 130.31-58.46 130.32-130.31 130.32z" fill="#666666" p-id="1167"></path><path d="M707.71 848.78H296.56c-42.64 0-77.45-37.8-78.54-84.73L172.4 541.59l41.39-8.49 46.46 226.54v2.14c0 24.67 16.29 44.75 36.32 44.75h411.15c20.03 0 36.32-20.08 36.32-44.75v-2.37l5.75-25.37 41.2 9.34-4.74 20.9c-1.2 46.83-35.97 84.5-78.54 84.5zM776.144 613.765l21.027-92.703 41.202 9.346-21.027 92.703zM338.28 459.11a85.75 85.75 0 0 1-25.27-3.81l-26.85-8.26 12.43-40.38 26.85 8.26c21.15 6.51 43.93-3.81 52.99-24.01l51.03-113.82 38.55 17.28-51.03 113.83c-14.18 31.63-45.52 50.91-78.7 50.91zM668.43 459.11c-33.18 0-64.52-19.28-78.7-50.91L538.7 294.38l38.55-17.28 51.03 113.82c9.05 20.2 31.83 30.51 52.99 24.01l26.85-8.26 12.43 40.38-26.85 8.26a86.017 86.017 0 0 1-25.27 3.8z" fill="#666666" p-id="1168"></path><path d="M503.36 745.9c-12.06 0-23.37-4.58-31.02-12.55l-99.59-103.9 26.88-25.76 99.59 103.9c0.28 0.29 1.78 1.09 4.14 1.09 2.36 0 3.86-0.8 4.14-1.09l99.59-103.9 26.88 25.76-99.59 103.9c-7.65 7.98-18.96 12.55-31.02 12.55z" fill="#666666" p-id="1169"></path><path d="M796.74 618.38m-20.68 0a20.68 20.68 0 1 0 41.36 0 20.68 20.68 0 1 0-41.36 0Z" fill="#666666" p-id="1170"></path><path d="M770.39 739.33m-20.68 0a20.68 20.68 0 1 0 41.36 0 20.68 20.68 0 1 0-41.36 0Z" fill="#666666" p-id="1171"></path><path d="M620.53 616.57m-18.62 0a18.62 18.62 0 1 0 37.24 0 18.62 18.62 0 1 0-37.24 0Z" fill="#666666" p-id="1172"></path><path d="M386.19 616.57m-18.62 0a18.62 18.62 0 1 0 37.24 0 18.62 18.62 0 1 0-37.24 0Z" fill="#666666" p-id="1173"></path><path d="M786.49 939.03H224.37c-11.56 0-20.93-9.37-20.93-20.93v-3.65c0-11.56 9.37-20.93 20.93-20.93h562.12c11.56 0 20.93 9.37 20.93 20.93v3.65c0 11.56-9.37 20.93-20.93 20.93z" fill="#666666" p-id="1174"></path><path d="M451.65 281.6m-20.68 0a20.68 20.68 0 1 0 41.36 0 20.68 20.68 0 1 0-41.36 0Z" fill="#666666" p-id="1175"></path><path d="M555.9 281.6m-20.68 0a20.68 20.68 0 1 0 41.36 0 20.68 20.68 0 1 0-41.36 0Z" fill="#666666" p-id="1176"></path></svg>