<?xml version="1.0" standalone="no"?><!DOCTYPE svg PUBLIC "-//W3C//DTD SVG 1.1//EN" "http://www.w3.org/Graphics/SVG/1.1/DTD/svg11.dtd"><svg t="1602825186165" class="icon" viewBox="0 0 1024 1024" version="1.1" xmlns="http://www.w3.org/2000/svg" p-id="1316" xmlns:xlink="http://www.w3.org/1999/xlink" width="200" height="200"><defs><style type="text/css"></style></defs><path d="M513.7 532.21m-252.99 0a252.99 252.99 0 1 0 505.98 0 252.99 252.99 0 1 0-505.98 0Z" fill="#F4E428" p-id="1317"></path><path d="M657.55 123.59H382.36c-16.12 0-29.19-13.07-29.19-29.19s13.07-29.19 29.19-29.19h275.19c16.12 0 29.19 13.07 29.19 29.19s-13.07 29.19-29.19 29.19z" fill="#666666" p-id="1318"></path><path d="M865.09 979.87H162.31c-42.74 0-77.5-33.81-77.5-75.37V143.24c0-41.56 34.77-75.37 77.5-75.37h157.5v53.06h-157.5c-13.48 0-24.45 10.01-24.45 22.31V904.5c0 12.3 10.97 22.31 24.45 22.31h702.78c13.48 0 24.45-10.01 24.45-22.31V143.24c0-12.3-10.97-22.31-24.45-22.31H724.27V67.87H865.1c42.74 0 77.5 33.81 77.5 75.37V904.5c0 41.56-34.77 75.37-77.51 75.37z" fill="#666666" p-id="1319"></path><path d="M720.1 336.24H319.82c-16.12 0-29.19-13.07-29.19-29.19s13.07-29.19 29.19-29.19H720.1c16.12 0 29.19 13.07 29.19 29.19s-13.07 29.19-29.19 29.19zM720.1 486.34H319.82c-16.12 0-29.19-13.07-29.19-29.19s13.07-29.19 29.19-29.19H720.1c16.12 0 29.19 13.07 29.19 29.19 0 16.13-13.07 29.19-29.19 29.19zM720.1 636.45H319.82c-16.12 0-29.19-13.07-29.19-29.19s13.07-29.19 29.19-29.19H720.1c16.12 0 29.19 13.07 29.19 29.19s-13.07 29.19-29.19 29.19zM720.1 786.55H319.82c-16.12 0-29.19-13.07-29.19-29.19s13.07-29.19 29.19-29.19H720.1c16.12 0 29.19 13.07 29.19 29.19 0 16.13-13.07 29.19-29.19 29.19z" fill="#666666" p-id="1320"></path></svg>