<?xml version="1.0" standalone="no"?><!DOCTYPE svg PUBLIC "-//W3C//DTD SVG 1.1//EN" "http://www.w3.org/Graphics/SVG/1.1/DTD/svg11.dtd"><svg t="1602825138477" class="icon" viewBox="0 0 1024 1024" version="1.1" xmlns="http://www.w3.org/2000/svg" p-id="1020" xmlns:xlink="http://www.w3.org/1999/xlink" width="200" height="200"><defs><style type="text/css"></style></defs><path d="M628.75 542.4m-243.46 0a243.46 243.46 0 1 0 486.92 0 243.46 243.46 0 1 0-486.92 0Z" fill="#F4E428" p-id="1021"></path><path d="M940.41 901.22H503.74c-58.67 0-115.61-10.21-169.26-30.36-51.98-19.52-98.71-47.5-138.88-83.17-40.4-35.86-72.15-77.7-94.37-124.35C78.1 614.8 66.37 563.21 66.37 510c0-53.21 11.73-104.8 34.86-153.35 22.22-46.65 53.98-88.49 94.37-124.35 40.17-35.67 86.9-63.65 138.88-83.17 53.65-20.14 110.59-30.36 169.26-30.36 58.45 0 114.4 10.33 166.3 30.69 49.56 19.45 94.45 47.62 133.41 83.73 76.19 70.61 125.01 167.83 137.47 273.76 8.15 69.29 0.5 356.69 0.17 368.89l-0.68 25.38zM503.74 170.94c-212.4 0-385.2 152.1-385.2 339.06s172.8 339.06 385.2 339.06h385.84c1.71-73.05 5.91-281.9-0.46-336.01-23.32-198.23-185.4-342.11-385.38-342.11z" fill="#666666" p-id="1022"></path><path d="M341.23 510m-54.17 0a54.17 54.17 0 1 0 108.34 0 54.17 54.17 0 1 0-108.34 0Z" fill="#666666" p-id="1023"></path><path d="M517.78 510m-54.17 0a54.17 54.17 0 1 0 108.34 0 54.17 54.17 0 1 0-108.34 0Z" fill="#666666" p-id="1024"></path><path d="M690.32 510m-54.17 0a54.17 54.17 0 1 0 108.34 0 54.17 54.17 0 1 0-108.34 0Z" fill="#666666" p-id="1025"></path></svg>