<?xml version="1.0" standalone="no"?><!DOCTYPE svg PUBLIC "-//W3C//DTD SVG 1.1//EN" "http://www.w3.org/Graphics/SVG/1.1/DTD/svg11.dtd"><svg t="1602825205014" class="icon" viewBox="0 0 1024 1024" version="1.1" xmlns="http://www.w3.org/2000/svg" p-id="1460" xmlns:xlink="http://www.w3.org/1999/xlink" width="200" height="200"><defs><style type="text/css"></style></defs><path d="M507.04 403.72m-240.68 0a240.68 240.68 0 1 0 481.36 0 240.68 240.68 0 1 0-481.36 0Z" fill="#F4E428" p-id="1461"></path><path d="M507.04 615.24c-115.92 0-210.24-94.31-210.24-210.23 0-115.92 94.31-210.24 210.24-210.24 115.92 0 210.23 94.31 210.23 210.24 0 115.92-94.31 210.23-210.23 210.23z m0-372.87c-89.68 0-162.64 72.96-162.64 162.64 0 89.68 72.96 162.63 162.64 162.63 89.68 0 162.63-72.96 162.63-162.63 0-89.68-72.96-162.64-162.63-162.64z" fill="#666666" p-id="1462"></path><path d="M899.74 968.28h-47.6c0-177.17-155.7-321.3-347.09-321.3-191.38 0-347.09 144.14-347.09 321.3h-47.6c0-50.01 10.52-98.52 31.28-144.18 19.99-43.97 48.56-83.42 84.94-117.27 36.25-33.73 78.44-60.2 125.39-78.68 48.51-19.09 100.02-28.77 153.08-28.77s104.57 9.68 153.08 28.77c46.95 18.48 89.13 44.95 125.39 78.68 36.37 33.84 64.95 73.3 84.94 117.27 20.76 45.66 31.28 94.17 31.28 144.18zM844.42 405.01h-43.63c0-157.13-132.45-284.97-295.26-284.97S210.26 247.88 210.26 405.01h-43.63c0-44.44 9-87.56 26.75-128.15 17.11-39.15 41.6-74.29 72.77-104.46 63.98-61.9 148.99-95.99 239.38-95.99s175.4 34.09 239.38 95.99c31.17 30.16 55.66 65.3 72.77 104.46 17.74 40.59 26.74 83.71 26.74 128.15z" fill="#666666" p-id="1463"></path><path d="M197.63 416.91m-59.5 0a59.5 59.5 0 1 0 119 0 59.5 59.5 0 1 0-119 0Z" fill="#666666" p-id="1464"></path><path d="M820.41 405.01m-59.5 0a59.5 59.5 0 1 0 119 0 59.5 59.5 0 1 0-119 0Z" fill="#666666" p-id="1465"></path></svg>