<?xml version="1.0" standalone="no"?><!DOCTYPE svg PUBLIC "-//W3C//DTD SVG 1.1//EN" "http://www.w3.org/Graphics/SVG/1.1/DTD/svg11.dtd"><svg class="icon" width="200px" height="200.00px" viewBox="0 0 1024 1024" version="1.1" xmlns="http://www.w3.org/2000/svg"><path d="M297.91744 759.38304l588.57984-6.70208a40.12544 40.12544 0 0 0 39.71584-38.8096l8.30976-265.61536a40.21248 40.21248 0 0 0-70.41536-27.648l-172.032 195.75296a40.28416 40.28416 0 0 1-49.29024 8.87296l-175.616-94.24896a40.30464 40.30464 0 0 0-47.75424 7.22432l-150.62016 153.088a40.04352 40.04352 0 0 0 29.12256 68.08576z" fill="#F4CA1C" /><path d="M816.84992 813.17376H212.27008A155.80672 155.80672 0 0 1 56.32 657.8688V232.10496A155.80672 155.80672 0 0 1 212.27008 76.8h604.57984A155.80672 155.80672 0 0 1 972.8 232.10496v425.76384a155.80672 155.80672 0 0 1-155.95008 155.30496zM212.27008 147.36896a84.992 84.992 0 0 0-85.08928 84.736v425.76384a84.992 84.992 0 0 0 85.08928 84.736h604.57984a84.992 84.992 0 0 0 85.08928-84.736V232.10496a84.992 84.992 0 0 0-85.08928-84.736H212.27008z m13.99808 461.65504a35.28704 35.28704 0 0 1-25.7536-59.50464l156.10368-164.6592a75.35616 75.35616 0 0 1 90.43456-14.336l170.09664 92.16a4.16768 4.16768 0 0 0 5.15584-0.9216l153.8304-175.66208a35.36896 35.36896 0 0 1 53.41184 46.38208l-153.83552 175.64672a74.81344 74.81344 0 0 1-92.43136 16.52736l-170.09152-92.16a4.18816 4.18816 0 0 0-5.0432 0.80384L252.04224 597.9648a35.41504 35.41504 0 0 1-25.76896 11.0592zM838.144 947.2H190.976a35.28704 35.28704 0 1 1 0-70.56896h647.168a35.28704 35.28704 0 1 1 0 70.56896z" fill="#595BB3" /></svg>