<?xml version="1.0" standalone="no"?><!DOCTYPE svg PUBLIC "-//W3C//DTD SVG 1.1//EN" "http://www.w3.org/Graphics/SVG/1.1/DTD/svg11.dtd"><svg class="icon" width="200px" height="200.00px" viewBox="0 0 1024 1024" version="1.1" xmlns="http://www.w3.org/2000/svg"><path d="M123.02336 884.27008s-49.47456-71.56224-28.37504-119.37792C160.6656 795.648 308.6848 481.84832 377.82016 476.70784c97.28-7.23456 162.14528 286.98112 266.37824 279.74656 86.63552-6.016 254.80192-139.87328 282.5984-286.98112 0 103.69536 4.608 299.03872 4.608 299.03872l-268.0064 125.6704-267.04896-128.08192z" fill="#F4CA1C" /><path d="M926.52544 104.448a77.21472 77.21472 0 0 0-73.02144-6.81984l-207.872 88.30464a5.24288 5.24288 0 0 1-1.40288 0.28672c-0.33792 0-0.65536-0.1024-0.9984-0.1024-0.19456 0-0.36864 0.05632-0.5632 0.05632a5.07904 5.07904 0 0 1-1.23904-0.27648l-238.76608-105.6768a77.0048 77.0048 0 0 0-16.18432-5.08416 35.00032 35.00032 0 0 0-30.42816 0.0512 77.03552 77.03552 0 0 0-16.1792 5.12L108.8 183.56224A80.92672 80.92672 0 0 0 61.44 257.6896v598.0928a80.72192 80.72192 0 0 0 38.02112 69.1712 76.87168 76.87168 0 0 0 75.29984 3.584l198.03136-98.53952a5.19168 5.19168 0 0 1 4.73088 0l231.88992 114.31936a76.8768 76.8768 0 0 0 67.28192 0.512l240.08704-113.72032A81.24928 81.24928 0 0 0 962.56 757.71392V172.32384a81.09056 81.09056 0 0 0-36.03456-67.87584zM142.6944 863.84128a4.88448 4.88448 0 0 1-5.24288-0.27648 8.704 8.704 0 0 1-3.90656-7.7824V257.6896a8.81152 8.81152 0 0 1 4.608-8.16128l197.12-88.064V768z m264.66304-99.51744V161.28l199.83872 88.448V862.72l-197.83168-97.54112c-0.66048-0.32768-1.34656-0.54784-2.00704-0.85504z m483.10272-6.60992a8.87808 8.87808 0 0 1-4.5056 8.10496l-206.65856 97.88416V250.09152l202.32704-85.96992a4.89984 4.89984 0 0 1 5.12 0.512 8.82688 8.82688 0 0 1 3.7376 7.68v585.40032z" fill="#595BB3" /></svg>