<?xml version="1.0" standalone="no"?><!DOCTYPE svg PUBLIC "-//W3C//DTD SVG 1.1//EN" "http://www.w3.org/Graphics/SVG/1.1/DTD/svg11.dtd"><svg class="icon" width="200px" height="200.00px" viewBox="0 0 1024 1024" version="1.1" xmlns="http://www.w3.org/2000/svg"><path d="M505.3952 637.03552l383.4368-228.90496v434.688l-73.91744 71.68-642.1504-6.94272-39.2704-39.30624z" fill="#F4CA1C" /><path d="M903.75168 403.87072a73.40544 73.40544 0 0 0-39.38304-8.79104v-187.4944A151.4496 151.4496 0 0 0 713.07264 56.32H315.4944a151.4496 151.4496 0 0 0-151.296 151.26528v188.416A73.27232 73.27232 0 0 0 81.92 468.87936v337.29536A151.4496 151.4496 0 0 0 233.216 957.44h557.568A151.4496 151.4496 0 0 0 942.08 806.17472V468.4288a73.51296 73.51296 0 0 0-38.32832-64.55808zM315.4944 125.67552h397.57824a82.00704 82.00704 0 0 1 81.92 81.92v220.6976l-282.90048 182.05696a4.18304 4.18304 0 0 1-4.54656 0l-273.97632-178.3808V207.58528A82.00704 82.00704 0 0 1 315.4944 125.67552z m557.21984 680.4992a82.01216 82.01216 0 0 1-81.92 81.92H233.216a82.00704 82.00704 0 0 1-81.92-81.92V468.87936a3.82976 3.82976 0 0 1 2.18624-3.67616 4.3008 4.3008 0 0 1 2.048-0.57344 3.90656 3.90656 0 0 1 2.21696 0.75264l311.94112 203.0848a73.64096 73.64096 0 0 0 79.94368 0.2048l316.61056-203.776a3.88096 3.88096 0 0 1 4.26496-0.1536 3.84 3.84 0 0 1 2.18624 3.67616v337.74592zM482.304 290.19648h221.696a34.67776 34.67776 0 1 0 0-69.35552H482.304a34.67776 34.67776 0 1 0 0 69.35552zM325.72928 418.16064H704a34.67776 34.67776 0 1 0 0-69.35552H325.72928a34.67776 34.67776 0 1 0 0 69.35552z" fill="#595BB3" /></svg>