<?xml version="1.0" standalone="no"?><!DOCTYPE svg PUBLIC "-//W3C//DTD SVG 1.1//EN" "http://www.w3.org/Graphics/SVG/1.1/DTD/svg11.dtd"><svg class="icon" width="200px" height="200.00px" viewBox="0 0 1024 1024" version="1.1" xmlns="http://www.w3.org/2000/svg"><path d="M712.59648 548.5824a201.40032 201.40032 0 1 0-201.3952 201.38496 201.39008 201.39008 0 0 0 201.3952-201.38496z" fill="#F4CA1C" /><path d="M950.144 507.8272a108.64128 108.64128 0 0 0-60.22144-185.344l-177.152-25.74336A35.40992 35.40992 0 0 1 686.08 277.39136l-79.2064-160.50688a108.65664 108.65664 0 0 0-194.8672 0L332.8 277.38624a35.4048 35.4048 0 0 1-26.6752 19.3792l-177.152 25.74336a108.64128 108.64128 0 0 0-60.22144 185.344l128.18432 124.928a35.4048 35.4048 0 0 1 10.19392 31.34464l-30.2592 176.4096a108.544 108.544 0 0 0 157.66016 114.54464l158.44864-83.29728a35.4304 35.4304 0 0 1 32.96256 0l158.45376 83.29728a108.65664 108.65664 0 0 0 157.64992-114.53952l-30.2592-176.4096a35.4048 35.4048 0 0 1 10.19392-31.34976z m-179.30752 72.4992a108.63104 108.63104 0 0 0-31.232 96.16384l30.2592 176.41472a35.42016 35.42016 0 0 1-51.39456 37.34016l-158.45376-83.29728a108.672 108.672 0 0 0-101.12512 0l-158.45888 83.29728a35.42528 35.42528 0 0 1-51.39968-37.34016l30.2592-176.41984a108.61568 108.61568 0 0 0-31.232-96.15872L119.8592 455.38304a35.40992 35.40992 0 0 1 19.62496-60.416l177.152-25.74336a108.65664 108.65664 0 0 0 81.8176-59.43296L477.696 149.28896a35.42528 35.42528 0 0 1 63.52896 0l79.22688 160.50688a108.62592 108.62592 0 0 0 81.80736 59.43808l177.152 25.74336a35.40992 35.40992 0 0 1 19.62496 60.416z m-133.05856-144.77824l-150.20544 172.1344-86.83008-73.55904a36.61824 36.61824 0 1 0-47.34464 55.87456l87.28064 73.9328a72.93952 72.93952 0 0 0 101.69344-7.68l150.59456-172.57472a36.61824 36.61824 0 0 0-55.18848-48.128z" fill="#595BB3" /></svg>