<?xml version="1.0" standalone="no"?><!DOCTYPE svg PUBLIC "-//W3C//DTD SVG 1.1//EN" "http://www.w3.org/Graphics/SVG/1.1/DTD/svg11.dtd"><svg class="icon" width="200px" height="200.00px" viewBox="0 0 1024 1024" version="1.1" xmlns="http://www.w3.org/2000/svg"><path d="M972.74368 680.0128A212.42368 212.42368 0 1 0 760.32 891.904a212.15744 212.15744 0 0 0 212.42368-211.8912z" fill="#F4CA1C" /><path d="M889.93792 921.6H134.05696A83.09248 83.09248 0 0 1 51.2 838.46656V248.5248a82.82112 82.82112 0 0 1 145.67936-54.21056l96.72192 112.80384a4.992 4.992 0 0 0 3.91168 1.81248h0.03072a4.97152 4.97152 0 0 0 3.8912-1.7664L447.65696 140.8A82.82624 82.82624 0 0 1 509.31712 112.64h0.4864a82.83136 82.83136 0 0 1 61.49632 27.41248l150.912 167.61856a4.97152 4.97152 0 0 0 3.84512 1.72032h0.07168a4.98688 4.98688 0 0 0 3.87072-1.81248l97.12128-113.27488A82.82624 82.82624 0 0 1 972.8 248.5248v589.94176A83.09248 83.09248 0 0 1 889.93792 921.6zM134.42048 243.2a6.144 6.144 0 0 0-2.17088 0.4352 4.56192 4.56192 0 0 0-3.38944 4.8896v589.94176a5.20704 5.20704 0 0 0 5.1968 5.21216h755.88096a5.21728 5.21728 0 0 0 5.20192-5.21216V248.5248a5.20192 5.20192 0 0 0-9.14944-3.39968L788.88448 358.4a82.68288 82.68288 0 0 1-124.3136 1.5104l-150.90688-167.6288a5.00224 5.00224 0 0 0-3.85024-1.72032 5.39136 5.39136 0 0 0-3.90656 1.7664L359.69024 358.69696a82.70848 82.70848 0 0 1-62.14656 28.16h-0.512a82.72384 82.72384 0 0 1-62.3104-28.92288L137.99936 245.12512a4.54144 4.54144 0 0 0-3.57888-1.92512z m371.10784 525.16352a171.42272 171.42272 0 1 1 170.8544-171.42272 171.33568 171.33568 0 0 1-170.8544 171.42272z m0-264.92416a93.50144 93.50144 0 1 0 93.184 93.50144 93.45536 93.45536 0 0 0-93.184-93.50144z" fill="#595BB3" /></svg>