<?xml version="1.0" standalone="no"?><!DOCTYPE svg PUBLIC "-//W3C//DTD SVG 1.1//EN" "http://www.w3.org/Graphics/SVG/1.1/DTD/svg11.dtd"><svg class="icon" width="200px" height="200.00px" viewBox="0 0 1024 1024" version="1.1" xmlns="http://www.w3.org/2000/svg"><path d="M512 1024C76.96384 1024 0 947.022507 0 512S76.96384 0 512 0 1024 76.96384 1024 512 947.022507 1024 512 1024z m0-998.4C98.7136 25.6 25.6 98.7136 25.6 512S98.7136 998.4 512 998.4 998.4 925.272747 998.4 512 925.272747 25.6 512 25.6z" fill="#EAC1B2" /><path d="M279.893333 785.066667c-101.034667 0-177.793707-5.270187-236.05248-21.149014C30.26944 698.69568 25.6 616.174933 25.6 512 25.6 98.7136 98.7136 25.6 512 25.6c31.402667 0 60.648107 0.49152 88.255147 1.447253C671.45728 83.367253 689.493333 187.665067 689.493333 375.466667c0 348.023467-61.576533 409.6-409.6 409.6z" fill="#EAC1B2" opacity=".2" /><path d="M259.413333 341.333333m40.96 0l491.52 0q40.96 0 40.96 40.96l0 300.373334q0 40.96-40.96 40.96l-491.52 0q-40.96 0-40.96-40.96l0-300.373334q0-40.96 40.96-40.96Z" fill="#EAC1B2" /><path d="M827.51488 699.610453a97.03424 97.03424 0 0 1-68.68992 28.030294H573.44a20.575573 20.575573 0 0 1-18.418347-31.061334c3.836587-6.47168 12.561067-2.730667 20.411734-2.53952h192.67584a57.67168 57.67168 0 0 0 58.176853-57.576106V363.738453a57.644373 57.644373 0 0 0-58.176853-57.576106H284.30336a57.644373 57.644373 0 0 0-58.176853 57.576106v272.7936a57.780907 57.780907 0 0 0 39.089493 54.203734c7.113387 2.307413 21.9136 1.174187 21.845333 8.328533a22.85568 22.85568 0 0 1-32.167253 20.56192 95.15008 95.15008 0 0 1-57.849173-88.323413V369.472853A96.856747 96.856747 0 0 1 294.475093 273.066667h464.349867a96.856747 96.856747 0 0 1 97.389227 96.392533v261.829973a96.70656 96.70656 0 0 1-28.699307 68.32128zM369.74592 464.213333a27.306667 27.306667 0 0 1-11.83744-18.158933c-1.119573-7.24992-0.45056-16.91648 6.92224-16.91648a44.673707 44.673707 0 0 1 89.33376 0c7.154347 0 7.591253 9.680213 6.92224 16.91648A28.194133 28.194133 0 0 1 449.194667 464.213333c-16.233813 50.025813-62.696107 50.025813-79.448747 0zM737.28 505.173333h-95.573333a13.653333 13.653333 0 1 1 0-27.306666h95.573333a13.653333 13.653333 0 0 1 0 27.306666z m0-109.226666H546.133333a13.653333 13.653333 0 0 1 0-27.306667h191.146667a13.653333 13.653333 0 0 1 0 27.306667z m0 54.613333H587.093333a13.653333 13.653333 0 0 1 0-27.306667h150.186667a13.653333 13.653333 0 0 1 0 27.306667z m-385.406293 54.408533l18.75968-4.01408a43.922773 43.922773 0 0 0 78.178986 0l18.75968 4.01408a54.217387 54.217387 0 0 1 44.004694 52.087467v114.551467l123.071146-121.419094a9.475413 9.475413 0 0 1 13.407574 13.380267L512 698.272427v1.2288a35.239253 35.239253 0 0 1-35.06176 34.583893 17.65376 17.65376 0 0 1-17.640107 17.36704h-98.932053a17.2032 17.2032 0 0 1-17.421653-17.36704 34.816 34.816 0 0 1-35.06176-34.679467V557.056a53.90336 53.90336 0 0 1 43.99104-52.087467z" fill="#9B3A18" /></svg>