<?xml version="1.0" standalone="no"?><!DOCTYPE svg PUBLIC "-//W3C//DTD SVG 1.1//EN" "http://www.w3.org/Graphics/SVG/1.1/DTD/svg11.dtd"><svg class="icon" width="200px" height="200.00px" viewBox="0 0 1024 1024" version="1.1" xmlns="http://www.w3.org/2000/svg"><path fill="#595bb3" d="M548.266667 928c-108.8 0-215.466667-40.533333-298.666667-123.733333C172.8 725.333333 128 618.666667 128 505.6c0-113.066667 44.8-217.6 123.733333-298.666667C330.666667 130.133333 437.333333 85.333333 548.266667 85.333333 661.333333 85.333333 768 130.133333 846.933333 209.066667c8.533333 8.533333 8.533333 21.333333 0 29.866666s-21.333333 8.533333-29.866666 0C744.533333 166.4 650.666667 128 548.266667 128c-100.266667 0-196.266667 38.4-266.666667 110.933333C209.066667 309.333333 170.666667 405.333333 170.666667 505.6s38.4 196.266667 110.933333 266.666667c147.2 147.2 388.266667 147.2 535.466667 0 8.533333-8.533333 21.333333-8.533333 29.866666 0s8.533333 21.333333 0 29.866666c-83.2 83.2-189.866667 125.866667-298.666666 125.866667zM548.266667 733.866667c-57.6 0-117.333333-21.333333-160-66.133334-42.666667-42.666667-66.133333-100.266667-66.133334-160s23.466667-117.333333 66.133334-160c89.6-89.6 232.533333-89.6 322.133333 0 8.533333 8.533333 8.533333 21.333333 0 29.866667s-21.333333 8.533333-29.866667 0c-72.533333-72.533333-189.866667-72.533333-262.4 0-34.133333 34.133333-53.333333 81.066667-53.333333 130.133333s19.2 96 53.333333 130.133334c72.533333 72.533333 189.866667 72.533333 262.4 0 8.533333-8.533333 21.333333-8.533333 29.866667 0s8.533333 21.333333 0 29.866666c-44.8 44.8-102.4 66.133333-162.133333 66.133334z" /></svg>