<?xml version="1.0" standalone="no"?><!DOCTYPE svg PUBLIC "-//W3C//DTD SVG 1.1//EN" "http://www.w3.org/Graphics/SVG/1.1/DTD/svg11.dtd"><svg class="icon" width="200px" height="200.00px" viewBox="0 0 1024 1024" version="1.1" xmlns="http://www.w3.org/2000/svg"><path fill="#595bb3" d="M508.586667 836.266667c-81.92 0-160.426667-30.72-221.866667-88.746667-13.653333-13.653333-13.653333-34.133333 0-47.786667 13.653333-13.653333 34.133333-13.653333 47.786667 0 47.786667 44.373333 109.226667 68.266667 174.08 68.266667 23.893333 0 47.786667-3.413333 71.68-10.24 17.066667-3.413333 37.546667 6.826667 40.96 23.893333 6.826667 17.066667-6.826667 37.546667-23.893334 40.96-30.72 10.24-58.026667 13.653333-88.746666 13.653334z m310.613333-262.826667c3.413333-13.653333 3.413333-30.72 3.413333-44.373333 0-170.666667-139.946667-307.2-314.026666-307.2-119.466667 0-232.106667 68.266667-283.306667 174.08-6.826667 17.066667 0 37.546667 17.066667 44.373333 17.066667 6.826667 37.546667 0 44.373333-17.066667 40.96-81.92 129.706667-136.533333 221.866667-136.533333 136.533333 0 245.76 105.813333 245.76 238.933333 0 10.24 0 23.893333-3.413334 34.133334-3.413333 17.066667 10.24 37.546667 27.306667 37.546666h3.413333c20.48 3.413333 34.133333-6.826667 37.546667-23.893333z m98.986667 44.373333c3.413333-6.826667 3.413333-17.066667 3.413333-27.306666 0-17.066667-17.066667-30.72-37.546667-30.72-20.48 0-34.133333 20.48-30.72 37.546666-6.826667 23.893333-139.946667 54.613333-365.226666 0-170.666667-44.373333-286.72-112.64-314.026667-157.013333-3.413333-3.413333-3.413333-6.826667-3.413333-10.24 3.413333-17.066667-6.826667-37.546667-23.893334-40.96-17.066667-3.413333-37.546667 6.826667-40.96 23.893333-3.413333 13.653333-6.826667 37.546667 10.24 64.853334 40.96 71.68 180.906667 143.36 354.986667 187.733333 85.333333 20.48 174.08 34.133333 249.173333 34.133333 102.4 3.413333 184.32-20.48 197.973334-81.92z"  /></svg>