<?xml version="1.0" standalone="no"?><!DOCTYPE svg PUBLIC "-//W3C//DTD SVG 1.1//EN" "http://www.w3.org/Graphics/SVG/1.1/DTD/svg11.dtd"><svg class="icon" width="200px" height="200.00px" viewBox="0 0 1024 1024" version="1.1" xmlns="http://www.w3.org/2000/svg"><path d="M740.161348 409.687412l-315.688414-179.174505c-21.330298-10.665149-40.527567-17.064239-59.724835-17.064239-42.660596 0-87.454223 31.995447-87.454222 100.252402v358.34901c0 70.389984 42.660596 100.252402 87.454222 100.252401 19.197268 0 38.394537-6.399089 59.724835-17.064238L740.161348 576.063738c36.261507-19.197268 57.591805-51.192716 57.591805-83.188163-2.13303-31.995447-23.463328-61.857865-57.591805-83.188163" fill="#347DFF" /><path d="M469.266561 381.958024l87.454222 223.968131H511.927157l-21.330298-55.458775h-91.720282l-19.197269 55.458775h-46.926656l87.454223-223.968131z" fill="#FFFFFF" /><path d="M445.803233 416.086501c-2.13303 2.13303-2.13303 4.26606-4.26606 8.532119-2.13303 6.399089-2.13303 10.665149-4.26606 12.798179 0 2.13303-10.665149 27.729388-29.862417 81.055133h72.523014c-19.197268-53.325746-29.862417-81.055133-29.862418-83.188163 0-6.399089-4.26606-12.798179-4.266059-19.197268z" fill="#347DFF" /><path d="M582.317141 605.926155V381.958024h42.660597v223.968131z" fill="#FCFCFC" /><path d="M68.256954 219.847757a66.123924 63.990895 90 1 0 127.98179 0 66.123924 63.990895 90 1 0-127.98179 0Z" fill="#347DFF" /><path d="M855.344958 740.307034a66.123924 63.990895 90 1 0 127.981789 0 66.123924 63.990895 90 1 0-127.981789 0Z" fill="#347DFF" /><path d="M328.486592 91.865968c0 19.197268-17.064239 36.261507-36.261507 36.261507S255.963579 113.196266 255.963579 91.865968c0-19.197268 17.064239-36.261507 36.261506-36.261507 21.330298 0 36.261507 17.064239 36.261507 36.261507z" fill="#347DFF" /><path d="M273.027817 62.003551c76.789074-42.660596 164.243296-63.990895 253.830549-61.857865C663.372274 4.411746 789.221034 57.737491 883.074346 155.856863s142.912998 223.968131 140.779968 358.34901c-2.13303 78.922103-23.463328 155.711177-61.857865 230.36722-4.26606 12.798179-17.064239 19.197268-29.862417 19.197269-19.197268 0-34.128477-14.931209-34.128477-34.128477v-8.53212l2.133029-2.133029c34.128477-59.724835 53.325746-127.981789 53.325746-200.504804 2.13303-115.18361-40.527567-226.101161-121.5827-309.289324s-189.839654-132.247849-307.156294-134.380878c-74.656044-2.13303-149.312087 14.931209-215.436012 51.192715M149.312087 271.040473c-44.793626 68.256954-70.389984 147.179058-72.523013 226.101161-2.13303 115.18361 40.527567 226.101161 121.582699 309.289324s189.839654 132.247849 307.156295 134.380879c93.853312 2.13303 183.440565-25.596358 262.362668-78.922103 6.399089-6.399089 12.798179-8.532119 23.463328-8.53212 19.197268 0 34.128477 14.931209 34.128477 34.128477 0 8.532119-4.26606 17.064239-8.53212 21.330299-89.587252 63.990895-191.972684 98.119372-298.624175 98.119371h-12.798178C223.968131 998.403642 0 768.036421 6.399089 490.742545c2.13303-93.853312 31.995447-183.440565 81.055134-258.096609" fill="#347DFF" /></svg>