<?xml version="1.0" standalone="no"?><!DOCTYPE svg PUBLIC "-//W3C//DTD SVG 1.1//EN" "http://www.w3.org/Graphics/SVG/1.1/DTD/svg11.dtd"><svg class="icon" width="200px" height="199.80px" viewBox="0 0 1025 1024" version="1.1" xmlns="http://www.w3.org/2000/svg"><path fill="#595bb3" d="M735.744 236.544c12.288 13.312 13.312 32.768 2.56 43.008l-406.016 375.296c-11.264 10.24-30.208 7.68-43.008-5.632-12.288-13.312-13.312-32.768-2.56-43.008l406.016-375.296c11.776-10.24 30.72-7.68 43.008 5.632zM958.976 27.136h-893.44c-36.352 0-65.536 29.696-65.536 65.536V793.6c0 36.352 29.696 65.536 65.536 65.536h351.744v89.6h-239.616c-18.432 0-33.28 14.848-33.28 33.28s14.848 33.28 33.28 33.28h669.184c18.432 0 33.28-14.848 33.28-33.28 0-17.92-14.848-32.768-33.28-33.28H609.792v-89.6h349.696c36.352 0 65.536-29.696 65.536-65.536V92.16c-0.512-35.84-30.208-65.024-66.048-65.024z m0 742.4h-0.512c0 12.288-10.24 22.528-22.528 22.528h-845.824c-12.288 0-22.528-10.24-22.528-23.04V116.224c0-12.288 10.24-22.528 22.528-22.528h846.336c12.288 0 22.528 10.24 22.528 22.528v653.312zM348.672 462.848c-66.048 0-119.808-53.76-119.808-119.808s53.76-119.808 119.808-119.808 119.808 53.76 119.808 119.808-53.76 119.808-119.808 119.808z m0-173.568c-29.696 0-53.248 24.064-53.248 53.248 0 29.696 24.064 53.248 53.248 53.248s53.248-24.064 53.248-53.248-23.552-53.248-53.248-53.248zM676.352 663.04c-66.048 0-119.808-53.76-119.808-119.808 0-66.048 53.76-119.808 119.808-119.808 66.048 0 119.808 53.76 119.808 119.808 0.512 66.048-53.76 119.808-119.808 119.808z m0-173.568c-29.696 0-53.248 24.064-53.248 53.248s24.064 53.248 53.248 53.248 53.248-24.064 53.248-53.248-23.552-53.248-53.248-53.248z" /></svg>