<?xml version="1.0" standalone="no"?><!DOCTYPE svg PUBLIC "-//W3C//DTD SVG 1.1//EN" "http://www.w3.org/Graphics/SVG/1.1/DTD/svg11.dtd"><svg class="icon" width="200px" height="200.00px" viewBox="0 0 1024 1024" version="1.1" xmlns="http://www.w3.org/2000/svg"><path d="M512 1024C76.96384 1024 0 947.022507 0 512S76.96384 0 512 0 1024 76.96384 1024 512 947.022507 1024 512 1024z m0-998.4C98.727253 25.6 25.6 98.7136 25.6 512S98.727253 998.4 512 998.4 998.4 925.272747 998.4 512 925.272747 25.6 512 25.6z" fill="#EAC1B2" /><path d="M279.893333 785.066667c-101.034667 0-177.793707-5.270187-236.05248-21.149014C30.26944 698.69568 25.6 616.174933 25.6 512 25.6 98.7136 98.727253 25.6 512 25.6c31.402667 0 60.648107 0.49152 88.255147 1.460907C671.45728 83.367253 689.493333 187.665067 689.493333 375.466667c0 348.023467-61.576533 409.6-409.6 409.6z" fill="#EAC1B2" opacity=".2" /><path d="M560.674133 850.957653L315.26912 709.277013V425.984l245.405013-141.748907L806.065493 425.984v283.293013z" fill="#EAC1B2" /><path d="M782.58176 700.66176l-38.352213 22.1184a9.70752 9.70752 0 0 1-4.942507 1.365333 9.91232 9.91232 0 0 1-4.942507-18.445653l38.324907-22.145707a34.73408 34.73408 0 0 0 17.28512-29.914453v-281.258667a34.69312 34.69312 0 0 0-17.28512-29.928106l-243.698347-140.629334a34.638507 34.638507 0 0 0-34.583893 0L409.6 250.729813a46.789973 46.789973 0 0 1 2.402987 14.103894 47.786667 47.786667 0 1 1-12.151467-31.3344l84.650667-48.837974a54.613333 54.613333 0 0 1 54.381226 0l243.698347 140.629334a54.613333 54.613333 0 0 1 27.19744 47.076693v281.258667a54.504107 54.504107 0 0 1-27.19744 47.035733z m-393.762133-448.812373a9.352533 9.352533 0 0 1-0.477867-0.873814 26.528427 26.528427 0 1 0 3.8912 13.871787 27.129173 27.129173 0 0 0-3.413333-12.997973z m350.467413 472.255146zM367.274667 460.43136q-48.360107-142.690987 78.260906-62.286507 119.808-90.412373 82.98496 55.760214 122.30656 86.766933-27.0336 96.733866-44.15488 144.083627-99.669333 4.096-149.62688 2.17088-34.542933-94.303573z m46.2848 79.62624q42.216107 106.496 75.776-3.072 113.568427-7.522987 20.48-73.550507 27.989333-111.138133-63.105707-42.3936-96.256-61.139627-59.51488 47.363414-87.49056 73.332053 26.309973 71.652693z m189.27616-198.137173q23.743147-45.056 34.03776 4.805973 50.858667 8.492373 6.007466 33.42336 7.686827 50.3808-30.324053 15.865173-46.134613 22.623573-24.753493-23.63392-36.20864-36.41344 15.03232-30.460586z m12.629333 329.44128a14.445227 14.445227 0 0 1-20.48 0l-74.888533-74.984107a14.45888 14.45888 0 1 1 20.48-20.48l74.929493 74.99776a14.472533 14.472533 0 0 1-0.04096 20.466347z m15.5648-211.244374q20.206933-27.921067 22.24128 5.556907 33.109333 9.161387 0.791893 22.336853 0.28672 33.641813-21.736106 8.27392-32.945493 11.618987-14.240427-17.257813-20.698453-26.391893 12.94336-18.909867zM289.05472 320.279893l-38.352213 22.145707a34.679467 34.679467 0 0 0-17.230507 29.928107v281.258666a34.69312 34.69312 0 0 0 17.298773 29.914454l243.698347 140.629333a34.679467 34.679467 0 0 0 34.583893 0l84.759894-48.919893a46.789973 46.789973 0 0 1-2.389334-14.09024 47.786667 47.786667 0 1 1 12.151467 31.3344l-84.650667 48.837973a54.613333 54.613333 0 0 1-54.381226 0L240.8448 700.689067a54.490453 54.490453 0 0 1-27.19744-47.06304v-281.258667a54.613333 54.613333 0 0 1 27.19744-47.076693l38.2976-22.186667a9.898667 9.898667 0 1 1 9.91232 17.175893z m369.62304 468.309334a27.552427 27.552427 0 1 0-26.528427-27.470507 27.552427 27.552427 0 0 0 26.528427 27.52512z" fill="#9B3A18" /></svg>