<?xml version="1.0" standalone="no"?><!DOCTYPE svg PUBLIC "-//W3C//DTD SVG 1.1//EN" "http://www.w3.org/Graphics/SVG/1.1/DTD/svg11.dtd"><svg class="icon" width="200px" height="200.00px" viewBox="0 0 1024 1024" version="1.1" xmlns="http://www.w3.org/2000/svg"><path fill="#595bb3" d="M481.350494 43.215804h61.299012v490.392098h-61.299012z"  /><path fill="#595bb3" d="M582.187369 156.925471L512 86.738102l-70.187369 70.187369-43.522299-43.215803L512 0l113.709668 113.709668-43.522299 43.215803zM620.499252 656.205926h-216.998504l-61.299012-91.948518H52.257408v-61.299012h323.045795l61.299012 91.948518h150.79557l61.299012-91.948518H971.742592v61.299012h-289.944328l-61.299012 91.948518z"  /><path fill="#595bb3" d="M1002.392098 1024H21.607902V528.397486L153.400778 165.813828H389.401975v61.299012H196.310087L82.906914 539.124813v423.576175h858.186172V539.124813L827.689913 227.11284H634.598025v-61.299012h236.001197L1002.392098 528.397486v495.602514z"  /></svg>